<svg xmlns="http://www.w3.org/2000/svg" viewBox="0 0 512 512"><path d="M480 289.8c17.6 0 28 12.4 28 30v12.4c0 17.6-10.4 34-28 34H40c-17.6 0-36-16.4-36-34v-12.4c0-17.6 18.4-30 36-30h31.2l45.2 46.4 124.4-46.4H480z" fill="#bf360c"/><path d="M480 365.8v29.6c0 17.6-10.4 34.4-28 34.4H68c-17.6 0-36-16.8-36-34.4v-29.6h448z" fill="#ffcc80"/><path d="M476 233.8c0 4.4-3.6 8-8 8H44c-4.4 0-8-3.6-8-8v-4c0-4.4 3.6-8 8-8h424c4.4 0 8 3.6 8 8v4z" fill="#ffee58"/><g fill="#9ccc65"><path d="M449.6 249.8H484c-8.8 0-8.8 8-17.2 8-8.8 0-8.8-8-17.2-8zM432.4 257.8c-8.8 0-8.8-8-17.2-8h34.4c-8.8 0-8.8 8-17.2 8zM414.8 249.8c-8.4 0-8.4 8-17.2 8s-8.8-8-17.2-8h34.4z"/></g><path d="M364.4 131.8l7.6 7.6c0 4.4-3.2 7.6-7.6 7.6s-7.6-3.2-7.6-7.6c0-4 3.2-7.6 7.6-7.6z" fill="#ffa726"/><path d="M252.4 171.8c0 4 3.6 7.6 7.6 7.6 4.4 0 7.6-3.2 7.6-7.6l-7.6-7.6c-4 0-7.6 3.6-7.6 7.6zm-64-48c0 4 3.6 7.6 7.6 7.6s7.6-3.6 7.6-7.6l-7.6-7.6c-4.4 0-7.6 3.2-7.6 7.6zm168.4 15.6c0 4.4 3.6 7.6 7.6 7.6 4.4 0 7.6-3.6 7.6-7.6l-7.6-7.6c-4.4 0-7.6 3.6-7.6 7.6zm-232.4 32.4c0 4 3.2 7.6 7.6 7.6 4 0 7.6-3.6 7.6-7.6l-7.6-7.6c-4 0-7.6 3.6-7.6 7.6zm367.6 50H28c0-76 104-139.6 232-139.6 128.4 0 232 63.6 232 139.6zm-76-66zm-32 36zm-72-28c0-.4 0-.4 0 0 0-.4 0 0 0 0z" fill="#ffcc80"/><g fill="#9ccc65"><path d="M363.2 257.8c-8.8 0-8.8-8-17.2-8h34.4c-8.4 0-8.4 8-17.2 8zM328.8 257.8c-8.4 0-8.4-8-17.2-8H346c-8.4 0-8.4 8-17.2 8zM277.2 249.8h34.4c-8.8 0-8.8 8-17.2 8-8.8 0-8.8-8-17.2-8z"/></g><path d="M260 179.4c-4.4 0-7.6-3.2-7.6-7.6s3.6-7.6 7.6-7.6l7.6 7.6c0 4.4-3.2 7.6-7.6 7.6z" fill="#ffa726"/><path d="M277.2 249.8c-8.4 0-8.4 8-17.2 8s-8.8-8-17.2-8h34.4z" fill="#9ccc65"/><path d="M472 273.8H48c-4.4 0-12 1.2-12 5.6v.4c0 4.4 6 10 10.4 10h24.8l45.2 46.4 124.4-46.4H471.2c4.4 0 4.8-5.6 4.8-10v-.4c0-4.4.4-5.6-4-5.6z" fill="#ffc400"/><path d="M242.8 249.8c-8.4 0-8.4 8-17.2 8s-8.8-8-17.2-8h34.4z" fill="#9ccc65"/><path d="M196 116.2l7.6 7.6c0 4-3.6 7.6-7.6 7.6s-7.6-3.6-7.6-7.6c0-4.4 3.2-7.6 7.6-7.6z" fill="#ffa726"/><g fill="#9ccc65"><path d="M174 249.8h34.4c-8.8 0-8.8 8-17.2 8-8.8 0-8.8-8-17.2-8zM156.8 257.8c-8.8 0-8.8-8-17.2-8H174c-8.8 0-8.8 8-17.2 8z"/></g><path d="M132 164.2l7.6 7.6c0 4-3.2 7.6-7.6 7.6-4 0-7.6-3.6-7.6-7.6s3.6-7.6 7.6-7.6z" fill="#ffa726"/><g fill="#9ccc65"><path d="M104.8 249.8h34.4c-8.4 0-8.4 8-17.2 8-8.4 0-8.4-8-17.2-8z"/><path d="M104.8 249.8c-8.4 0-8.4 8-17.2 8-8.4 0-8.4-8-17.2-8h34.4z"/><path d="M70.4 249.8c-8.8 0-8.8 8-17.2 8-8.8 0-8.8-8-17.2-8h34.4z"/></g><path d="M492 225.8h-24c-2.4 0-4-1.6-4-4s1.6-4 4-4h20c-3.6-72-106.4-131.6-228-131.6-121.2 0-224.4 60-228 131.6h12c2.4 0 4 1.6 4 4s-1.6 4-4 4H28c-2.4 0-4-1.6-4-4 0-79.2 106-143.6 236-143.6s236 64.4 236 143.6c0 2.4-1.6 4-4 4zM37.6 369.8c-19.6 0-37.6-18-37.6-38v-12.4c0-20.4 20.8-34 40-34h28c2.4 0 4 1.6 4 4s-1.6 4-4 4H40c-15.2 0-32 10.8-32 26v12.4c0 15.6 14 30 29.6 30 2.4 0 4 1.6 4 4s-2 4-4 4zM478 369.8c-2.4 0-4-1.6-4-4s1.6-4 4-4c16 0 26-15.6 26-30v-12.4c0-16-9.2-26-24-26H244c-2.4 0-4-1.6-4-4s1.6-4 4-4h236c19.2 0 32 13.6 32 34v12.4c0 20.8-15.2 38-34 38z"/><path d="M452 433.8H68c-20.4 0-40-18.8-40-38.4v-29.6c0-2.4 1.6-4 4-4s4 1.6 4 4v29.6c0 14.8 16 30.4 32 30.4h384c15.6 0 24-15.6 24-30.4v-29.6c0-2.4 1.6-4 4-4s4 1.6 4 4v29.6c0 18.8-11.2 38.4-32 38.4zM116.4 340.2c-1.2 0-2-.4-2.8-1.2l-44-45.2H68c-2.4 0-4-1.6-4-4s1.6-4 4-4h3.2c1.2 0 2 .4 2.8 1.2l43.2 44.4 122-45.6c.4 0 1.2-.4 1.6-.4h5.2c2.4 0 4 2 4 4 0 2.4-2 4-4 4h-4.4l-123.6 46c-.8.4-1.2.8-1.6.8z"/><path d="M468.4 293.8c-2.4 0-4-1.6-4-4s1.6-4 4-4 3.6-2 3.6-4v-2.4c0-.4-2-1.6-6-1.6H45.2c-2.4 0-5.2 1.2-5.2 3.2 0 2.4 2.4 4.8 4.8 4.8s4 1.6 4 4-1.6 4-4 4c-6.4 0-12.8-6.4-12.8-12.8 0-6.8 6.8-11.2 13.2-11.2H466c8.8 0 14 3.6 14 9.6v2.4c0 6.8-5.2 12-11.6 12zM468 245.8H44c-6.8 0-12-5.2-12-12v-4c0-6.8 5.2-12 12-12h424c6.8 0 12 5.2 12 12v4c0 6.8-5.2 12-12 12zm-424-20c-2.4 0-4 1.6-4 4v4c0 2.4 1.6 4 4 4h424c2.4 0 4-1.6 4-4v-4c0-2.4-1.6-4-4-4H44zM466.8 263.4c-6 0-9.2-2.8-11.2-5.2-2-2-3.2-2.8-6-2.8s-4 1.2-6 2.8c-2.4 2-5.6 5.2-11.2 5.2-6 0-9.2-2.8-11.2-5.2-2-2-3.2-2.8-6-2.8s-4 1.2-6 2.8c-2.4 2-5.6 5.2-11.2 5.2-6 0-9.2-2.8-11.2-5.2-2-2-3.2-2.8-6-2.8s-4 1.2-6 2.8c-2.4 2-5.6 5.2-11.2 5.2-6 0-9.2-2.8-11.2-5.2-2-2-3.2-2.8-6-2.8s-4 1.2-6 2.8c-2.4 2-5.6 5.2-11.2 5.2-6 0-9.2-2.8-11.2-5.2-2-2-3.2-2.8-6-2.8s-4 1.2-6 2.8c-2.4 2-5.6 5.2-11.2 5.2-6 0-9.2-2.8-11.2-5.2-2-2-3.2-2.8-6-2.8s-4 1.2-6 2.8c-2.4 2-5.6 5.2-11.2 5.2-6 0-9.2-2.8-11.2-5.2-2-2-3.2-2.8-6-2.8s-4 1.2-6 2.8c-2.4 2-5.6 5.2-11.2 5.2-6 0-9.2-2.8-11.2-5.2-2-2-3.2-2.8-6-2.8s-4 1.2-6 2.8c-2.4 2-5.6 5.2-11.2 5.2-6 0-9.2-2.8-11.2-5.2-2-2-3.2-2.8-6-2.8s-4 1.2-6 2.8c-2.4 2-5.6 5.2-11.2 5.2-6 0-9.2-2.8-11.2-5.2-2-2-3.2-2.8-6-2.8s-4 1.2-6 2.8c-2.4 2-5.6 5.2-11.2 5.2-6 0-9.2-2.8-11.2-5.2-2-2-3.2-2.8-6-2.8s-4 1.2-6 2.8c-2.4 2-5.6 5.2-11.2 5.2-6 0-9.2-2.8-11.2-5.2-2-2-3.2-2.8-6-2.8s-4 1.2-6 2.8c-2.4 2-5.6 5.2-11.2 5.2-6 0-9.2-2.8-11.2-5.2-2-2-3.2-2.8-6-2.8-2.4 0-4-1.6-4-4s1.6-4 4-4c6 0 9.2 2.8 11.2 5.2 2 2 3.2 2.8 6 2.8s4-1.2 6-2.8c2.4-2 5.6-5.2 11.2-5.2 6 0 9.2 2.8 11.2 5.2 2 2 3.2 2.8 6 2.8s4-1.2 6-2.8c2.4-2 5.6-5.2 11.2-5.2 6 0 9.2 2.8 11.2 5.2 2 2 3.2 2.8 6 2.8s4-1.2 6-2.8c2.4-2 5.6-5.2 11.2-5.2 6 0 9.2 2.8 11.2 5.2 2 2 3.2 2.8 6 2.8s4-1.2 6-2.8c2.4-2 5.6-5.2 11.2-5.2 6 0 9.2 2.8 11.2 5.2 2 2 3.2 2.8 6 2.8s4-1.2 6-2.8c2.4-2 5.6-5.2 11.2-5.2s9.2 2.8 11.2 5.2c2 2 3.2 2.8 6 2.8s4-1.2 6-2.8c2.4-2 5.6-5.2 11.2-5.2 6 0 9.2 2.8 11.2 5.2 2 2 3.2 2.8 6 2.8s4-1.2 6-2.8c2.4-2 5.6-5.2 11.2-5.2 6 0 9.2 2.8 11.2 5.2 2 2 3.2 2.8 6 2.8s4-1.2 6-2.8c2.4-2 5.6-5.2 11.2-5.2 6 0 9.2 2.8 11.2 5.2 2 2 3.2 2.8 6 2.8s4-1.2 6-2.8c2.4-2 5.6-5.2 11.2-5.2 6 0 9.2 2.8 11.2 5.2 2 2 3.2 2.8 6 2.8s4-1.2 6-2.8c2.4-2 5.6-5.2 11.2-5.2 6 0 9.2 2.8 11.2 5.2 2 2 3.2 2.8 6 2.8s4-1.2 6-2.8c2.4-2 5.6-5.2 11.2-5.2 6 0 9.2 2.8 11.2 5.2 2 2 3.2 2.8 6 2.8s4-1.2 6-2.8c2.4-2 5.6-5.2 11.2-5.2 6 0 9.2 2.8 11.2 5.2 2 2 3.2 2.8 6 2.8s4-1.2 6-2.8c2.4-2 5.6-5.2 11.2-5.2 2.4 0 4 1.6 4 4s-1.6 4-4 4c-2.8 0-4 1.2-6 2.8-2 2.4-5.2 5.2-11.2 5.2zM260 183.4c-6.4 0-11.6-5.2-11.6-11.6s5.2-11.6 11.6-11.6c2.4 0 4 1.6 4 4s-1.6 4-4 4c-2 0-3.6 1.6-3.6 3.6s1.6 3.6 3.6 3.6 3.6-1.6 3.6-3.6c0-2.4 1.6-4 4-4s4 1.6 4 4c0 6.4-5.2 11.6-11.6 11.6zM364.4 151c-6.4 0-11.6-5.2-11.6-11.6s5.2-11.6 11.6-11.6c2.4 0 4 1.6 4 4s-1.6 4-4 4c-2 0-3.6 1.6-3.6 3.6s1.6 3.6 3.6 3.6 3.6-1.6 3.6-3.6c0-2.4 1.6-4 4-4s4 1.6 4 4c0 6.4-5.2 11.6-11.6 11.6zM132 183.4c-6.4 0-11.6-5.2-11.6-11.6s5.2-11.6 11.6-11.6c2.4 0 4 1.6 4 4s-1.6 4-4 4c-2 0-3.6 1.6-3.6 3.6s1.6 3.6 3.6 3.6 3.6-1.6 3.6-3.6c0-2.4 1.6-4 4-4s4 1.6 4 4c0 6.4-5.2 11.6-11.6 11.6zM196 135.4c-6.4 0-11.6-5.2-11.6-11.6s5.2-11.6 11.6-11.6c2.4 0 4 1.6 4 4s-1.6 4-4 4c-2 0-3.6 1.6-3.6 3.6s1.6 3.6 3.6 3.6 3.6-1.6 3.6-3.6c0-2.4 1.6-4 4-4s4 1.6 4 4c0 6.4-5.2 11.6-11.6 11.6zM248 127.8c-2.4 0-4-1.6-4-4s1.6-4 4-4c1.6 0 3.2.8 3.6 2.4.4.4.4 1.2.4 1.6 0 2-1.6 4-4 4zM146 137.8c-1.2 0-2-.4-2.8-1.2-.8-.8-1.2-1.6-1.2-2.8 0-1.2.4-2 1.2-2.8 1.6-1.6 4-1.6 5.6 0 .8.8 1.2 2 1.2 2.8 0 1.2-.4 2-1.2 2.8-.8.8-1.6 1.2-2.8 1.2zM312 167.8c-2.4 0-4-2-4-4s1.6-4 4-4 4 1.6 4 4-1.6 4-4 4zM384 195.8c-2.4 0-4-2-4-4s1.6-4 4-4 4 1.6 4 4-1.6 4-4 4zM416 159.8c-2.4 0-4-1.6-4-4s1.6-4 4-4 4 1.6 4 4-1.6 4-4 4zM82 189.8c-1.2 0-2-.4-2.8-1.2-.8-.8-1.2-1.6-1.2-2.8 0-1.2.4-2 1.2-2.8 1.6-1.6 4-1.6 5.6 0 .8.8 1.2 2 1.2 2.8 0 1.2-.4 2-1.2 2.8-.8.8-1.6 1.2-2.8 1.2zM32 361.8h448v8H32z"/></svg>