<svg height="50" viewBox="0 0 512 512" width="50" xmlns="http://www.w3.org/2000/svg"><path d="M320.913 226.507c.022 21.651-4.695 39.784-15.146 56.013-3.742 5.81-2.55 8.812 1.91 13.206 26.929 26.533 53.571 53.359 80.294 80.101 7.526 7.531 7.729 11.243.741 19.402-2.481 2.897-5.254 5.629-8.247 7.985-5.373 4.229-10.117 4.16-15.426-1.233-27.139-27.576-54.7-54.738-81.869-82.286-4.136-4.193-6.865-5.336-12.494-1.956-69.966 42.02-156.498-5.812-158.882-87.615-1.494-51.276 40.176-98.76 90.404-104.987 55.818-6.919 105.888 29.727 116.785 82.585 1.439 6.976 2.159 13.993 1.93 18.785zm-174.125 2.369c-.024 38.293 31.658 70.1 69.786 70.061 37.851-.039 70.022-32.216 70.044-70.056.022-38.141-31.776-69.804-70.073-69.774-38.572.03-69.733 31.197-69.757 69.769z"/></svg>