<svg width="512" height="512" xmlns="http://www.w3.org/2000/svg">

 <g>
  <title>background</title>
  <rect fill="none" id="canvas_background" height="402" width="582" y="-1" x="-1"/>
 </g>
 <g>
  <title>Layer 1</title>
  <path fill="#007fff" id="svg_1" d="m344.5,298c15,-23.6 23.8,-51.6 23.8,-81.7c0,-84.1 -68.1,-152.3 -152.1,-152.3c-84.1,0 -152.2,68.2 -152.2,152.3c0,84.1 68.1,152.3 152.1,152.3c30.5,0 58.9,-9 82.7,-24.4l6.9,-4.8l108.6,108.6l33.7,-34.3l-108.5,-108.6l5,-7.1zm-43.1,-166.8c22.7,22.7 35.2,52.9 35.2,85c0,32.1 -12.5,62.3 -35.2,85c-22.7,22.7 -52.9,35.2 -85,35.2c-32.1,0 -62.3,-12.5 -85,-35.2c-22.7,-22.7 -35.2,-52.9 -35.2,-85c0,-32.1 12.5,-62.3 35.2,-85c22.7,-22.7 52.9,-35.2 85,-35.2c32.1,0 62.3,12.5 85,35.2z"/>
 </g>
</svg>